<?xml version="1.0" encoding="UTF-8"?>
<svg id="Layer_1" data-name="Layer 1" xmlns="http://www.w3.org/2000/svg" viewBox="0 0 226 170.19">
  <defs>
    <style>
      .cls-1 {
        fill: none;
      }

      .cls-1, .cls-2 {
        stroke: #000;
        stroke-miterlimit: 10;
      }

      .cls-2 {
        fill: #fff;
      }
    </style>
  </defs>
  <path class="cls-2" d="M225.5,79.5c0,10.91-3.15,21.3-8.84,30.75s-13.93,17.96-24.11,25.11c-10.18,7.15-22.3,12.93-35.76,16.93-13.46,4-28.26,6.21-43.79,6.21s-30.33-2.21-43.79-6.21c-30.17-10.23-47.34-13.15-43.71,6.21,3,16-8,15-11-4-2.69-17.05,12-21-5.16-44.25C3.65,100.8.5,90.41.5,79.5s3.15-21.3,8.84-30.75,13.93-17.96,24.11-25.11,22.3-12.93,35.76-16.93c13.46-4,28.26-6.21,43.79-6.21s30.33,2.21,43.79,6.21,25.58,9.78,35.76,16.93,18.42,15.66,24.11,25.11,8.84,19.84,8.84,30.75Z"/>
  <polyline class="cls-1" points="32 55.5 52.87 48.5 73.75 55.5 94.62 48.5 115.5 55.5 136.37 48.5 157.25 55.5 178.12 48.5 198.5 55.5"/>
  <polyline class="cls-1" points="31.6 105.17 52.47 98.17 73.35 105.17 94.22 98.17 115.1 105.17 135.97 98.17 156.85 105.17 177.72 98.17 198.1 105.17"/>
  <polyline class="cls-1" points="198.1 74.17 177.22 81.17 156.35 74.17 135.47 81.17 114.6 74.17 93.72 81.17 72.85 74.17 51.97 81.17 31.6 74.17"/>
</svg>