<?xml version="1.0" encoding="UTF-8"?>
<svg id="svg" xmlns="http://www.w3.org/2000/svg" viewBox="0 0 296.12 241.64">
  <defs>
    <style>
      .cls-1 {
        fill: #fff;
        stroke-width: 0px;
      }
    </style>
  </defs>
  <path class="cls-1" d="M178.17,45.7c70.57-27.47,15.17-93.23,100.73,11.65,15.84,19.42,20.68,22.41,14.81,27.26-24.42,20.2-71.41,52.99-85.42,61.59-17.1,10.5-27.74,20.91-45.49,42.24-19.18,23.05-18.98,62.39-45.3,51.26-27.27-11.53,35.45-62.85,2.58-90.83-31.07-26.45-83.92-7.87-90.67,25.26-4.27,20.96,22.55,55.99-.84,64.2C4.49,246.8-6.51,168.02,3.96,141.2,26.12,84.62,100.05,50.57,160.07,49.88"/>
  <circle class="cls-1" cx="75.55" cy="200.22" r="41.42"/>
</svg>