<?xml version="1.0" encoding="utf-8"?>
<svg xmlns="http://www.w3.org/2000/svg" viewBox="43.424 83.594 383.299 226.352" width="383.299px" height="226.352px"><g id="thatpocket" transform="matrix(1, 0, 0, 1, 2.842170943040401e-14, 0)"><path d="M 142.798 83.594 L 157.646 83.594 L 157.646 105.989 C 159.688 104.512 161.78 103.332 163.922 102.448 C 166.064 101.564 168.31 101.122 170.662 101.122 C 171.92 101.122 173.091 101.332 174.175 101.751 C 175.26 102.17 176.204 102.817 177.006 103.692 C 177.808 104.567 178.437 105.693 178.892 107.069 C 179.348 108.446 179.576 110.091 179.576 112.005 L 179.576 128.739 L 164.728 128.739 L 164.728 111.075 C 164.728 110.127 164.523 109.434 164.113 108.997 C 163.703 108.56 163.033 108.341 162.103 108.341 C 161.684 108.341 161.269 108.405 160.859 108.532 C 160.449 108.659 160.053 108.823 159.67 109.024 C 159.287 109.225 158.922 109.453 158.576 109.708 C 158.23 109.963 157.92 110.218 157.646 110.473 L 157.646 128.739 L 142.798 128.739 L 142.798 83.594 Z M 185.163 120.208 C 185.163 118.895 185.455 117.674 186.038 116.544 C 186.622 115.413 187.46 114.429 188.553 113.591 C 189.647 112.752 190.969 112.091 192.518 111.608 C 194.068 111.125 195.799 110.884 197.713 110.884 C 199.627 110.884 201.418 111.107 203.086 111.553 C 204.754 112 206.154 112.569 207.284 113.262 L 207.284 113.044 C 207.284 111.768 207.143 110.683 206.86 109.79 C 206.578 108.897 206.145 108.167 205.561 107.602 C 204.978 107.037 204.235 106.627 203.332 106.372 C 202.43 106.117 201.369 105.989 200.147 105.989 C 199.035 105.989 197.887 106.085 196.702 106.276 C 195.517 106.467 194.423 106.745 193.42 107.11 L 191.424 103.419 C 193.412 102.598 195.467 102.01 197.59 101.655 C 199.714 101.3 201.906 101.122 204.166 101.122 C 207.065 101.122 209.631 101.4 211.864 101.956 C 214.097 102.512 215.975 103.341 217.497 104.444 C 219.019 105.547 220.172 106.932 220.955 108.6 C 221.739 110.268 222.131 112.223 222.131 114.466 L 222.131 128.739 L 208.268 128.739 L 207.338 126.114 C 206.792 126.533 206.145 126.934 205.397 127.317 C 204.65 127.7 203.83 128.037 202.936 128.329 C 202.043 128.62 201.095 128.848 200.092 129.012 C 199.09 129.177 198.042 129.259 196.948 129.259 C 195.162 129.259 193.544 129.026 192.094 128.561 C 190.645 128.096 189.41 127.463 188.389 126.661 C 187.369 125.859 186.576 124.906 186.01 123.803 C 185.446 122.7 185.163 121.502 185.163 120.208 Z M 200.475 119.634 C 200.475 120.618 200.794 121.415 201.432 122.026 C 202.07 122.637 202.927 122.942 204.002 122.942 C 204.586 122.942 205.16 122.846 205.725 122.655 C 206.291 122.464 206.81 122.177 207.284 121.794 L 207.284 117.173 C 206.372 116.626 205.37 116.352 204.276 116.352 C 203.036 116.352 202.093 116.657 201.446 117.268 C 200.799 117.879 200.475 118.667 200.475 119.634 Z M 231.071 106.153 L 228.009 106.153 L 228.009 101.641 L 231.071 101.641 L 231.071 92.618 L 245.919 92.618 L 245.919 101.641 L 253.056 101.641 L 250.266 106.153 L 245.919 106.153 L 245.919 118.43 C 245.919 120.289 246.334 121.72 247.163 122.723 C 247.993 123.726 249.182 124.227 250.731 124.227 L 249.036 127.973 C 248.088 128.374 247.081 128.689 246.015 128.917 C 244.949 129.145 243.713 129.259 242.309 129.259 C 240.341 129.259 238.646 129.008 237.224 128.507 C 235.802 128.006 234.636 127.29 233.724 126.36 C 232.812 125.431 232.142 124.291 231.714 122.942 C 231.286 121.593 231.071 120.071 231.071 118.376 L 231.071 106.153 Z M 220.361 184.368 C 220.361 182.217 220.803 180.275 221.687 178.544 C 222.571 176.812 223.847 175.335 225.515 174.114 C 227.183 172.893 229.221 171.949 231.627 171.284 C 234.033 170.619 236.768 170.286 239.83 170.286 C 242.893 170.286 245.627 170.619 248.033 171.284 C 250.439 171.949 252.476 172.893 254.144 174.114 C 255.812 175.335 257.088 176.812 257.972 178.544 C 258.857 180.275 259.299 182.217 259.299 184.368 C 259.299 186.501 258.857 188.433 257.972 190.165 C 257.088 191.896 255.812 193.373 254.144 194.594 C 252.476 195.815 250.439 196.759 248.033 197.424 C 245.627 198.09 242.893 198.423 239.83 198.423 C 236.768 198.423 234.033 198.09 231.627 197.424 C 229.221 196.759 227.183 195.815 225.515 194.594 C 223.847 193.373 222.571 191.896 221.687 190.165 C 220.803 188.433 220.361 186.501 220.361 184.368 Z M 239.83 193.419 C 240.505 193.419 241.107 193.282 241.635 193.008 C 242.164 192.735 242.601 192.256 242.947 191.573 C 243.294 190.89 243.558 189.965 243.74 188.798 C 243.922 187.631 244.013 186.155 244.013 184.368 C 244.013 182.563 243.922 181.078 243.74 179.911 C 243.558 178.744 243.294 177.819 242.947 177.135 C 242.601 176.452 242.164 175.973 241.635 175.7 C 241.107 175.427 240.505 175.29 239.83 175.29 C 239.138 175.29 238.532 175.427 238.012 175.7 C 237.492 175.973 237.059 176.452 236.713 177.135 C 236.367 177.819 236.102 178.744 235.92 179.911 C 235.738 181.078 235.646 182.563 235.646 184.368 C 235.646 186.155 235.738 187.631 235.92 188.798 C 236.102 189.965 236.367 190.89 236.713 191.573 C 237.059 192.256 237.492 192.735 238.012 193.008 C 238.532 193.282 239.138 193.419 239.83 193.419 Z M 263.357 184.341 C 263.357 182.5 263.745 180.731 264.519 179.036 C 265.294 177.341 266.465 175.846 268.033 174.551 C 269.601 173.257 271.583 172.223 273.98 171.448 C 276.378 170.673 279.199 170.286 282.443 170.286 C 284.777 170.286 286.773 170.509 288.431 170.956 C 290.09 171.403 291.448 171.99 292.505 172.719 C 293.563 173.448 294.338 174.278 294.83 175.208 C 295.322 176.137 295.568 177.085 295.568 178.051 C 295.568 178.799 295.395 179.51 295.048 180.184 C 294.702 180.859 294.238 181.456 293.654 181.975 C 293.071 182.495 292.387 182.91 291.603 183.219 C 290.819 183.529 289.99 183.684 289.115 183.684 L 282.169 174.196 C 281.659 174.652 281.19 175.19 280.761 175.809 C 280.333 176.429 279.96 177.135 279.64 177.928 C 279.322 178.721 279.076 179.606 278.902 180.581 C 278.729 181.556 278.642 182.627 278.642 183.794 C 278.642 185.416 278.843 186.838 279.244 188.059 C 279.645 189.28 280.192 190.297 280.884 191.108 C 281.577 191.919 282.402 192.53 283.359 192.94 C 284.316 193.35 285.36 193.555 286.49 193.555 C 287.037 193.555 287.588 193.514 288.144 193.432 C 288.7 193.35 289.229 193.241 289.73 193.104 C 290.232 192.967 290.692 192.808 291.111 192.626 C 291.531 192.443 291.886 192.252 292.177 192.051 L 294.365 195.88 C 293.691 196.226 292.957 196.554 292.164 196.864 C 291.371 197.174 290.496 197.443 289.539 197.671 C 288.582 197.898 287.529 198.08 286.38 198.217 C 285.232 198.354 283.975 198.423 282.607 198.423 C 279.326 198.423 276.478 198.035 274.062 197.26 C 271.647 196.485 269.646 195.451 268.06 194.157 C 266.474 192.863 265.294 191.368 264.519 189.673 C 263.745 187.978 263.357 186.2 263.357 184.341 Z M 300.76 152.758 L 315.608 152.758 L 315.608 182.208 L 326.628 170.805 L 334.831 170.805 L 326.135 179.637 L 339.561 197.903 L 322.936 197.876 L 315.608 187.376 L 315.608 197.903 L 300.76 197.903 L 300.76 152.758 Z M 341.696 184.204 C 341.696 182.636 341.942 181.205 342.434 179.911 C 342.926 178.616 343.605 177.454 344.471 176.424 C 345.337 175.395 346.363 174.497 347.547 173.731 C 348.733 172.966 350.018 172.328 351.403 171.817 C 352.789 171.306 354.238 170.924 355.75 170.669 C 357.264 170.414 358.795 170.286 360.344 170.286 C 362.386 170.286 364.241 170.491 365.908 170.901 C 367.576 171.311 369.062 171.872 370.366 172.583 C 371.67 173.294 372.8 174.123 373.756 175.071 C 374.714 176.019 375.507 177.026 376.135 178.092 C 376.764 179.159 377.229 180.257 377.53 181.387 C 377.831 182.518 377.981 183.621 377.981 184.696 L 357.309 187.184 C 357.71 189.207 358.512 190.775 359.715 191.887 C 360.919 192.999 362.605 193.555 364.774 193.555 C 365.959 193.555 367.066 193.409 368.096 193.118 C 369.126 192.826 369.933 192.47 370.516 192.051 L 372.703 195.88 C 372.029 196.226 371.296 196.554 370.502 196.864 C 369.71 197.174 368.835 197.443 367.877 197.671 C 366.921 197.898 365.863 198.08 364.705 198.217 C 363.548 198.354 362.277 198.423 360.891 198.423 C 357.573 198.423 354.711 198.035 352.305 197.26 C 349.899 196.485 347.908 195.446 346.33 194.143 C 344.754 192.84 343.587 191.331 342.83 189.618 C 342.074 187.905 341.696 186.1 341.696 184.204 Z M 364.719 181.907 C 364.719 179.537 364.423 177.814 363.83 176.739 C 363.238 175.664 362.359 175.126 361.192 175.126 C 360.59 175.126 360.034 175.272 359.524 175.563 C 359.014 175.855 358.576 176.311 358.211 176.93 C 357.847 177.55 357.555 178.348 357.336 179.323 C 357.118 180.298 356.999 181.479 356.981 182.864 L 364.719 181.907 Z M 384.638 175.317 L 381.575 175.317 L 381.575 170.805 L 384.638 170.805 L 384.638 161.782 L 399.485 161.782 L 399.485 170.805 L 406.622 170.805 L 403.833 175.317 L 399.485 175.317 L 399.485 187.594 C 399.485 189.453 399.9 190.884 400.729 191.887 C 401.559 192.89 402.749 193.391 404.298 193.391 L 402.603 197.137 C 401.655 197.538 400.648 197.853 399.581 198.081 C 398.515 198.309 397.28 198.423 395.876 198.423 C 393.908 198.423 392.212 198.172 390.79 197.671 C 389.368 197.17 388.202 196.454 387.29 195.524 C 386.379 194.595 385.709 193.455 385.28 192.106 C 384.852 190.757 384.638 189.235 384.638 187.54 L 384.638 175.317 Z M 271.626 217.945 L 286.474 217.945 L 286.474 240.34 C 288.516 238.863 290.607 237.683 292.749 236.799 C 294.891 235.915 297.138 235.473 299.489 235.473 C 300.747 235.473 301.919 235.683 303.003 236.102 C 304.088 236.521 305.031 237.168 305.833 238.043 C 306.635 238.918 307.264 240.044 307.72 241.42 C 308.176 242.797 308.403 244.442 308.403 246.356 L 308.403 263.09 L 293.556 263.09 L 293.556 245.426 C 293.556 244.478 293.351 243.785 292.94 243.348 C 292.53 242.911 291.861 242.692 290.931 242.692 C 290.512 242.692 290.097 242.756 289.686 242.883 C 289.276 243.01 288.88 243.174 288.497 243.375 C 288.115 243.576 287.75 243.804 287.403 244.059 C 287.057 244.314 286.748 244.569 286.474 244.824 L 286.474 263.09 L 271.626 263.09 L 271.626 217.945 Z M 314.005 249.391 C 314.005 247.823 314.252 246.392 314.744 245.098 C 315.236 243.803 315.915 242.641 316.781 241.611 C 317.647 240.582 318.673 239.684 319.857 238.918 C 321.042 238.153 322.327 237.515 323.713 237.004 C 325.099 236.493 326.548 236.111 328.06 235.856 C 329.574 235.601 331.105 235.473 332.654 235.473 C 334.696 235.473 336.55 235.678 338.218 236.088 C 339.886 236.498 341.372 237.059 342.675 237.77 C 343.979 238.481 345.109 239.31 346.066 240.258 C 347.024 241.206 347.817 242.213 348.445 243.279 C 349.074 244.346 349.539 245.444 349.839 246.574 C 350.141 247.705 350.291 248.808 350.291 249.883 L 329.619 252.371 C 330.02 254.394 330.822 255.962 332.025 257.074 C 333.229 258.186 334.915 258.742 337.084 258.742 C 338.269 258.742 339.376 258.596 340.406 258.305 C 341.436 258.013 342.243 257.657 342.826 257.238 L 345.013 261.067 C 344.339 261.413 343.606 261.741 342.812 262.051 C 342.02 262.361 341.145 262.63 340.187 262.858 C 339.231 263.085 338.173 263.267 337.015 263.404 C 335.858 263.541 334.587 263.61 333.201 263.61 C 329.883 263.61 327.021 263.222 324.615 262.447 C 322.209 261.672 320.217 260.633 318.64 259.33 C 317.064 258.027 315.897 256.518 315.14 254.805 C 314.384 253.092 314.005 251.287 314.005 249.391 Z M 337.029 247.094 C 337.029 244.724 336.733 243.001 336.14 241.926 C 335.548 240.851 334.669 240.313 333.502 240.313 C 332.9 240.313 332.344 240.459 331.834 240.75 C 331.324 241.042 330.886 241.498 330.521 242.117 C 330.157 242.737 329.865 243.535 329.646 244.51 C 329.428 245.485 329.309 246.666 329.291 248.051 L 337.029 247.094 Z M 355.389 235.992 L 368.487 235.992 L 369.799 239.93 C 370.839 239.164 371.819 238.503 372.739 237.947 C 373.659 237.391 374.552 236.926 375.418 236.553 C 376.284 236.179 377.123 235.906 377.934 235.733 C 378.746 235.56 379.552 235.473 380.354 235.473 C 381.521 235.473 382.574 235.637 383.512 235.965 C 384.451 236.293 385.253 236.758 385.918 237.36 C 386.584 237.961 387.094 238.677 387.449 239.506 C 387.805 240.335 387.983 241.251 387.983 242.254 C 387.983 243.257 387.769 244.177 387.34 245.016 C 386.912 245.855 386.288 246.579 385.467 247.19 C 384.647 247.801 383.64 248.274 382.446 248.611 C 381.252 248.948 379.89 249.117 378.358 249.117 L 373.545 242.692 C 373.017 242.692 372.443 242.801 371.823 243.02 C 371.203 243.239 370.675 243.585 370.237 244.059 L 370.237 263.09 L 355.389 263.09 L 355.389 235.992 Z M 390.438 249.391 C 390.438 247.823 390.684 246.392 391.176 245.098 C 391.668 243.803 392.347 242.641 393.213 241.611 C 394.079 240.582 395.105 239.684 396.289 238.918 C 397.474 238.153 398.759 237.515 400.145 237.004 C 401.531 236.493 402.98 236.111 404.492 235.856 C 406.006 235.601 407.537 235.473 409.086 235.473 C 411.128 235.473 412.982 235.678 414.65 236.088 C 416.318 236.498 417.804 237.059 419.107 237.77 C 420.411 238.481 421.542 239.31 422.498 240.258 C 423.456 241.206 424.249 242.213 424.877 243.279 C 425.506 244.346 425.971 245.444 426.271 246.574 C 426.573 247.705 426.723 248.808 426.723 249.883 L 406.051 252.371 C 406.452 254.394 407.254 255.962 408.457 257.074 C 409.661 258.186 411.347 258.742 413.516 258.742 C 414.701 258.742 415.808 258.596 416.838 258.305 C 417.868 258.013 418.675 257.657 419.258 257.238 L 421.445 261.067 C 420.771 261.413 420.038 261.741 419.244 262.051 C 418.452 262.361 417.577 262.63 416.619 262.858 C 415.663 263.085 414.605 263.267 413.447 263.404 C 412.29 263.541 411.019 263.61 409.633 263.61 C 406.315 263.61 403.453 263.222 401.047 262.447 C 398.641 261.672 396.65 260.633 395.072 259.33 C 393.496 258.027 392.329 256.518 391.572 254.805 C 390.816 253.092 390.438 251.287 390.438 249.391 Z M 413.461 247.094 C 413.461 244.724 413.165 243.001 412.572 241.926 C 411.98 240.851 411.101 240.313 409.934 240.313 C 409.332 240.313 408.776 240.459 408.266 240.75 C 407.756 241.042 407.318 241.498 406.953 242.117 C 406.589 242.737 406.297 243.535 406.078 244.51 C 405.86 245.485 405.741 246.666 405.723 248.051 L 413.461 247.094 Z M 69.717 97.933 L 43.424 97.933 L 43.424 83.733 L 131.853 83.733 L 131.853 97.933 L 105.56 97.933 L 105.56 175.944 L 69.717 175.944 L 69.717 97.933 Z M 120.34 140.469 L 164.679 140.469 C 172.864 140.428 179.923 141.141 185.856 142.608 C 191.789 144.075 196.677 146.173 200.522 148.902 C 204.367 151.631 207.209 154.907 209.048 158.731 C 210.888 162.555 211.808 166.803 211.808 171.474 C 211.808 175.567 210.95 179.485 209.234 183.226 C 207.519 186.967 204.873 190.264 201.297 193.117 C 197.721 195.969 193.173 198.243 187.654 199.938 C 182.135 201.633 175.572 202.48 167.965 202.48 L 156.183 202.48 L 156.183 232.618 L 120.34 232.618 L 120.34 140.469 Z M 156.183 188.962 C 159.036 188.921 161.578 188.476 163.811 187.628 C 166.043 186.781 167.924 185.603 169.454 184.094 C 170.983 182.585 172.151 180.766 172.957 178.637 C 173.764 176.508 174.167 174.12 174.167 171.474 C 174.167 168.87 173.753 166.514 172.926 164.405 C 172.099 162.297 170.911 160.488 169.361 158.979 C 167.81 157.47 165.929 156.282 163.718 155.413 C 161.506 154.545 158.994 154.07 156.183 153.987 L 156.183 188.962 Z M 199.085 231.935 L 172.792 231.935 L 172.792 217.735 L 261.221 217.735 L 261.221 231.935 L 234.928 231.935 L 234.928 309.946 L 199.085 309.946 L 199.085 231.935 Z" style="fill: rgb(255, 255, 255);"/></g></svg>